<?xml version="1.0" standalone="no"?>
<!DOCTYPE svg PUBLIC "-//W3C//DTD SVG 20010904//EN"
 "http://www.w3.org/TR/2001/REC-SVG-20010904/DTD/svg10.dtd">
<svg version="1.0" xmlns="http://www.w3.org/2000/svg"
 width="870.000000pt" height="870.000000pt" viewBox="0 0 870.000000 870.000000"
 preserveAspectRatio="xMidYMid meet">
<metadata>
Created by potrace 1.11, written by Peter Selinger 2001-2013
</metadata>
<g transform="translate(0.000000,870.000000) scale(0.100000,-0.100000)"
fill="#000000" stroke="none">
<path d="M2485 8499 c-158 -11 -204 -24 -375 -107 -115 -56 -281 -172 -402
-281 -69 -63 -246 -281 -332 -411 -230 -346 -329 -700 -321 -1147 2 -95 6
-176 8 -180 3 -5 8 -32 11 -62 27 -229 132 -517 269 -736 147 -237 386 -474
610 -607 34 -20 78 -47 98 -59 22 -13 54 -49 80 -91 57 -90 563 -856 826
-1249 l205 -306 -143 -289 -142 -289 1 -94 c2 -110 23 -166 92 -246 23 -27
242 -252 485 -500 243 -247 561 -571 706 -719 518 -527 895 -903 938 -934 53
-39 88 -40 157 -8 44 20 55 32 84 87 18 35 45 87 60 114 15 28 102 198 194
378 92 181 171 336 176 345 5 10 34 68 64 131 31 62 65 125 75 140 9 14 35 64
56 111 21 47 196 398 388 780 l350 695 -1 95 c-1 114 -17 173 -67 240 -42 57
-43 45 18 180 64 142 177 389 212 465 216 465 374 863 573 1450 61 178 131
477 156 660 14 104 21 260 20 475 -1 250 -9 321 -75 695 -38 217 -73 344 -147
526 -140 350 -243 473 -457 548 -49 18 -148 61 -220 96 -173 85 -261 107 -441
107 -267 -1 -495 -108 -722 -341 -244 -250 -413 -575 -521 -1004 -23 -90 -49
-156 -112 -285 -101 -207 -191 -397 -208 -439 -17 -42 -27 -41 -44 0 -18 41
-25 95 -32 227 -28 531 -202 956 -535 1306 -277 292 -704 506 -1054 530 -133
9 -442 10 -561 3z m2479 -2285 c2 -11 7 -46 10 -79 10 -81 12 -97 43 -264 30
-164 29 -182 -25 -411 -17 -69 -38 -161 -47 -205 -26 -122 -38 -165 -49 -165
-6 0 -96 85 -200 189 -105 103 -205 196 -223 205 -43 21 -98 20 -152 -4 -24
-11 -45 -20 -46 -20 -2 0 25 47 60 104 69 113 152 281 179 361 20 62 40 94 31
50 -22 -112 -15 -163 32 -209 34 -34 69 -33 142 4 68 34 96 66 112 124 20 76
40 141 66 211 53 143 59 152 67 109z m-733 -827 c-5 -13 -93 -193 -196 -400
l-187 -377 -632 0 -631 1 -42 67 c-23 37 -40 68 -38 70 2 2 27 -1 56 -7 32 -7
149 -11 298 -10 242 1 248 1 376 33 369 93 656 267 925 564 41 45 76 82 77 82
1 0 -1 -10 -6 -23z m1136 -379 c27 -39 57 -85 69 -102 12 -17 80 -88 152 -157
l131 -127 -61 -6 c-98 -12 -128 -34 -153 -114 l-10 -33 -79 79 c-43 43 -82 85
-86 93 -5 8 -11 64 -14 124 -3 61 -9 146 -13 190 -9 90 -6 138 8 130 5 -3 30
-38 56 -77z m1336 -624 c-3 -32 -331 -756 -351 -776 -7 -7 -146 127 -397 387
-48 50 -132 135 -186 190 l-98 100 11 45 c6 25 14 48 17 51 3 4 213 10 466 14
253 3 461 7 462 9 1 1 19 1 40 0 31 -1 38 -4 36 -20z m-2973 9 c0 -5 -95 -198
-212 -430 -201 -399 -213 -422 -229 -405 -18 17 -242 354 -542 814 l-19 28
501 0 c276 0 501 -3 501 -7z"/>
</g>
</svg>
